<?xml version="1.0" encoding="UTF-8"?>
<svg version="1.1" xmlns="http://www.w3.org/2000/svg" width="393" height="283">
<path d="M0 0 C1.12254936 -0.0098568 1.12254936 -0.0098568 2.26777649 -0.01991272 C4.74533187 -0.03962743 7.22282661 -0.05130578 9.70043945 -0.0612793 C10.54824289 -0.06535482 11.39604633 -0.06943035 12.26954079 -0.07362938 C16.75911846 -0.09448486 21.24866563 -0.1087874 25.73828125 -0.11816406 C30.36400363 -0.1292122 34.9892428 -0.16359492 39.61479473 -0.20333576 C43.18114585 -0.22954906 46.74738282 -0.23786019 50.31382179 -0.24144554 C52.01817898 -0.24630132 53.72253141 -0.25788645 55.42679405 -0.27648354 C72.21228275 -0.44822618 72.21228275 -0.44822618 78.6262207 4.17700195 C79.8762207 6.86450195 79.8762207 6.86450195 80.6262207 9.17700195 C81.2449707 9.30075195 81.8637207 9.42450195 82.5012207 9.55200195 C84.6262207 10.17700195 84.6262207 10.17700195 86.8762207 13.23950195 C89.05544693 17.44291065 89.14799135 20.48106615 88.6262207 25.17700195 C86.89917143 29.90366313 84.82903403 32.44165822 80.6262207 35.17700195 C77.99485739 35.54403409 75.79458794 35.68625911 73.17382812 35.63110352 C72.4415802 35.63168762 71.70933228 35.63227173 70.95489502 35.63287354 C68.54666911 35.63009794 66.13969776 35.59903297 63.73168945 35.56762695 C62.05732398 35.56016264 60.38294974 35.55447061 58.70857239 35.55047607 C54.31071676 35.53523456 49.91339312 35.49596592 45.51574707 35.45166016 C40.23444868 35.40346398 34.95297198 35.38516633 29.67151642 35.36184692 C21.65604834 35.32311356 13.64174653 35.24645055 5.6262207 35.17700195 C5.6262207 51.01700195 5.6262207 66.85700195 5.6262207 83.17700195 C9.34774414 83.14219727 13.06926758 83.10739258 16.90356445 83.0715332 C20.52766148 83.0481038 24.1517499 83.02990643 27.77587891 83.01220703 C30.28503222 82.99716667 32.79415945 82.97672923 35.30322266 82.95068359 C38.92006895 82.91409181 42.53656612 82.89722747 46.15356445 82.8840332 C47.82285255 82.86080742 47.82285255 82.86080742 49.52586365 82.83711243 C60.58146273 82.83475004 67.26685581 85.10189987 75.26293945 92.7746582 C83.5340535 101.18248488 88.69185178 108.05383562 88.80322266 120.23974609 C88.82247551 122.07799706 88.82247551 122.07799706 88.84211731 123.9533844 C88.85028924 125.28963818 88.8577321 126.62589659 88.86450195 127.9621582 C88.86857748 128.63981169 88.87265301 129.31746517 88.87685204 130.01565361 C88.89768602 133.6074378 88.91199529 137.19918417 88.92138672 140.79101562 C88.93240367 144.47370795 88.96675532 148.15578813 89.00655842 151.83826542 C89.03290345 154.69273379 89.04109455 157.54706074 89.0446682 160.40163994 C89.05181814 162.41051268 89.07818437 164.41928805 89.10505676 166.42799377 C89.08347018 175.63327973 87.80008408 183.41620688 82.6262207 191.17700195 C81.9662207 191.17700195 81.3062207 191.17700195 80.6262207 191.17700195 C80.6262207 191.83700195 80.6262207 192.49700195 80.6262207 193.17700195 C79.9662207 193.17700195 79.3062207 193.17700195 78.6262207 193.17700195 C78.6262207 193.83700195 78.6262207 194.49700195 78.6262207 195.17700195 C77.04547506 195.99452499 75.46150847 196.80582192 73.8762207 197.61450195 C72.55364258 198.29319336 72.55364258 198.29319336 71.2043457 198.9855957 C66.9500859 200.9515794 63.4374343 201.30053019 58.75610352 201.29052734 C57.57518127 201.29045181 56.39425903 201.29037628 55.17755127 201.29029846 C53.90764343 201.28513718 52.6377356 201.27997589 51.3293457 201.2746582 C50.02543884 201.27324326 48.72153198 201.27182831 47.37811279 201.27037048 C43.91919015 201.26656062 40.4603098 201.25674347 37.00140381 201.2456665 C33.46879661 201.23541942 29.93618235 201.23081094 26.40356445 201.22583008 C19.47774591 201.21565104 12.55204335 201.19607552 5.6262207 201.17700195 C5.6262207 216.68700195 5.6262207 232.19700195 5.6262207 248.17700195 C39.6162207 248.17700195 73.6062207 248.17700195 108.6262207 248.17700195 C108.59141602 233.7343457 108.55661133 219.29168945 108.52075195 204.41137695 C108.50542293 195.26033368 108.49085678 186.10929971 108.47973633 176.95825195 C108.46194459 162.43413104 108.4410435 147.91006238 108.39990234 133.38598633 C108.36995206 122.80756409 108.35063432 112.2291843 108.34395522 101.65072083 C108.34005251 96.05220676 108.33091319 90.45381412 108.30903053 84.85533905 C108.28857647 79.57930964 108.28240489 74.303451 108.28689766 69.02738571 C108.28607644 67.09734797 108.28016422 65.16730417 108.26860428 63.23730087 C108.18952723 49.34644625 108.82386889 37.16653964 116.6262207 25.17700195 C117.07610352 24.4809082 117.52598633 23.78481445 117.98950195 23.06762695 C119.12954953 21.38614085 120.36959985 19.77325007 121.6262207 18.17700195 C122.2862207 18.17700195 122.9462207 18.17700195 123.6262207 18.17700195 C123.6262207 17.51700195 123.6262207 16.85700195 123.6262207 16.17700195 C124.2862207 16.17700195 124.9462207 16.17700195 125.6262207 16.17700195 C125.6262207 15.51700195 125.6262207 14.85700195 125.6262207 14.17700195 C139.16396357 2.51868543 154.2700004 -0.89479651 171.6262207 0.17700195 C180.71265061 1.48525757 188.62439583 5.91325585 196.6262207 10.17700195 C196.6262207 10.83700195 196.6262207 11.49700195 196.6262207 12.17700195 C197.22080078 12.44996094 197.81538086 12.72291992 198.42797852 13.00415039 C210.1256958 19.24535806 219.69179917 33.26008018 223.7355957 45.5480957 C224.48031551 48.41807723 225.10023066 51.26014806 225.6262207 54.17700195 C225.79848899 54.89567286 225.97075727 55.61434378 226.14824581 56.35479259 C226.74845151 59.89871543 226.7609498 63.37149864 226.74647522 66.95344543 C226.74775686 68.11754072 226.74775686 68.11754072 226.74906439 69.30515307 C226.75070946 71.90153841 226.74521374 74.49785891 226.73974609 77.09423828 C226.73946399 78.95702106 226.73962242 80.81980395 226.7401886 82.68258667 C226.74047565 87.73792422 226.73459372 92.79323807 226.72761464 97.84857011 C226.72136585 103.13233714 226.72077609 108.41610472 226.71958923 113.69987488 C226.71648043 123.70472437 226.70827309 133.70956294 226.69823974 143.71440762 C226.68497531 157.23446914 226.67957506 170.75453364 226.67373753 184.27460003 C226.66433292 205.57540885 226.64441097 226.87619463 226.6262207 248.17700195 C260.2862207 248.17700195 293.9462207 248.17700195 328.6262207 248.17700195 C328.6262207 232.66700195 328.6262207 217.15700195 328.6262207 201.17700195 C323.18702148 201.24661133 323.18702148 201.24661133 317.63793945 201.31762695 C314.09653114 201.34888943 310.55513865 201.37313918 307.01367188 201.39672852 C304.56666091 201.41675025 302.11969721 201.44397593 299.67285156 201.47875977 C296.14026163 201.52769358 292.60830841 201.55006611 289.07543945 201.56762695 C287.99477707 201.58827209 286.91411469 201.60891724 285.80070496 201.63018799 C275.67317881 201.63312937 266.97111474 199.34701756 259.6262207 192.17700195 C258.3887207 191.03231445 258.3887207 191.03231445 257.1262207 189.86450195 C247.01028078 178.98986653 245.15480841 169.04139016 245.2277832 154.3293457 C245.22491302 153.03686417 245.22204285 151.74438263 245.21908569 150.41273499 C245.21469814 147.6956183 245.22097748 144.97880031 245.23510742 142.26171875 C245.25221487 138.80672701 245.24232618 135.35243395 245.22439003 131.89746761 C245.21084827 128.56220661 245.22037115 125.22712644 245.2277832 121.8918457 C245.22171051 120.6655394 245.21563782 119.43923309 245.2093811 118.17576599 C245.29641911 107.45317458 246.82041726 98.03327395 254.6262207 90.17700195 C260.95610535 85.13287513 265.57845402 83.04673797 273.67993164 83.06347656 C274.90089539 83.06355209 276.12185913 83.06362762 277.37982178 83.06370544 C279.35030487 83.07144737 279.35030487 83.07144737 281.3605957 83.0793457 C282.72251331 83.08121175 284.08443158 83.08263477 285.4463501 83.08363342 C289.02363959 83.08744392 292.60088822 83.09726163 296.17816162 83.1083374 C299.83141517 83.11858311 303.48467555 83.12319266 307.13793945 83.12817383 C314.30073591 83.13835404 321.46342028 83.15792941 328.6262207 83.17700195 C328.6262207 67.33700195 328.6262207 51.49700195 328.6262207 35.17700195 C321.47579102 35.24661133 321.47579102 35.24661133 314.1809082 35.31762695 C311.15484466 35.33807333 308.12886669 35.35732952 305.1027832 35.37231445 C300.30312335 35.39619491 295.50376972 35.42439756 290.7043457 35.47875977 C286.83342262 35.52232894 282.96282805 35.54616227 279.09167862 35.55651093 C277.61730912 35.56388256 276.14295692 35.57827787 274.66872787 35.59992218 C272.59801611 35.62910553 270.5286491 35.63295205 268.45776367 35.63110352 C266.69237747 35.64442719 266.69237747 35.64442719 264.8913269 35.65802002 C260.91598975 35.07237016 258.74489418 33.66353187 255.6262207 31.17700195 C254.95955404 29.84366862 254.29288737 28.51033529 253.6262207 27.17700195 C252.8218457 26.90887695 252.0174707 26.64075195 251.1887207 26.36450195 C248.6262207 25.17700195 248.6262207 25.17700195 246.8137207 21.98950195 C245.18990026 16.77618368 244.89487233 13.14009494 246.8137207 7.98950195 C249.41626669 3.95106852 252.06741407 1.69660417 256.6262207 0.17700195 C259.08255695 0.06592977 261.51130526 0.00939946 263.96826172 0 C264.71341537 -0.0065712 265.45856903 -0.0131424 266.2263031 -0.01991272 C268.69424547 -0.03963216 271.16212685 -0.05130866 273.63012695 -0.0612793 C274.47543409 -0.06535482 275.32074123 -0.06943035 276.19166374 -0.07362938 C280.67057932 -0.09448982 285.14946432 -0.10878855 289.62841797 -0.11816406 C294.23600893 -0.12919548 298.84311255 -0.16355729 303.45053196 -0.20333576 C307.00838565 -0.22959748 310.56612524 -0.2378646 314.12406731 -0.24144554 C315.82118945 -0.24629117 317.5183072 -0.25784688 319.21533394 -0.27648354 C331.09888228 -0.39881861 341.04646281 0.17130646 350.1105957 8.68481445 C350.61075195 9.17723633 351.1109082 9.6696582 351.6262207 10.17700195 C352.4718457 10.94012695 353.3174707 11.70325195 354.1887207 12.48950195 C360.64698139 19.61014835 363.7322774 25.21703666 363.78735352 34.83813477 C363.79231842 35.4988649 363.79728333 36.15959503 363.80239868 36.84034729 C363.81696963 39.02028457 363.82381459 41.20014903 363.8293457 43.38012695 C363.8351023 44.90224203 363.84085997 46.4243571 363.84661865 47.94647217 C363.85711491 51.1374139 363.86296624 54.32833055 363.86645508 57.51928711 C363.87193018 61.59225541 363.89594269 65.6648878 363.92442703 69.73775101 C363.9431267 72.88290347 363.94826294 76.02797629 363.94979095 79.17317963 C363.95280262 80.67377301 363.96078054 82.17436549 363.97397614 83.67490387 C364.05979546 94.18598507 363.72228103 102.574476 356.2980957 110.6418457 C350.46040343 116.0021566 343.28183281 118.43715222 335.43725586 118.40405273 C334.23646393 118.40390167 333.035672 118.40375061 331.79849243 118.40359497 C329.87630386 118.38811111 329.87630386 118.38811111 327.9152832 118.37231445 C326.57864596 118.36857985 325.24200596 118.36573499 323.90536499 118.36373901 C320.40366938 118.35613773 316.9021422 118.33651984 313.4005127 118.31433105 C309.82082437 118.29379669 306.24110776 118.28461121 302.66137695 118.2746582 C295.64950992 118.25433395 288.63810415 118.21517918 281.6262207 118.17700195 C281.6262207 134.01700195 281.6262207 149.85700195 281.6262207 166.17700195 C285.5759082 166.1305957 289.5255957 166.08418945 293.5949707 166.03637695 C297.43415035 166.00515274 301.27331567 165.9808811 305.11254883 165.95727539 C307.77432318 165.93946546 310.43523098 165.9099391 313.09692383 165.87524414 C316.92971651 165.82654648 320.76192433 165.80399079 324.5949707 165.78637695 C326.37043274 165.75540924 326.37043274 165.75540924 328.1817627 165.72381592 C338.10379611 165.72114075 344.05313219 168.12962802 351.1105957 175.0168457 C351.69325195 175.60594727 352.2759082 176.19504883 352.8762207 176.80200195 C353.4743457 177.36790039 354.0724707 177.93379883 354.6887207 178.5168457 C362.51071164 186.32153135 364.13767886 194.76742464 364.20765686 205.5736084 C364.20381486 207.0143265 364.19877552 208.45504184 364.19262695 209.89575195 C364.1978747 211.40450419 364.20415535 212.91325315 364.21141052 214.42199707 C364.22176168 217.56884307 364.21732949 220.71523538 364.20263672 223.86206055 C364.18544301 227.87002501 364.2089774 231.87655646 364.24412632 235.88436127 C364.26621415 238.99535394 364.26463186 242.10600953 364.25636101 245.21705627 C364.25554795 246.6936653 364.26228624 248.17030071 364.27713203 249.64683533 C364.36091102 259.48363365 363.65197455 267.86041915 356.60719299 275.31286621 C349.00937612 282.44796976 342.58794536 283.62076354 332.41381836 283.58105469 C331.18708908 283.58791794 329.9603598 283.59478119 328.69645691 283.60185242 C325.34288808 283.61698919 321.98987645 283.61862214 318.63631487 283.61291003 C315.83081326 283.60981234 313.0253616 283.61591721 310.21986711 283.62194878 C303.59746329 283.63598132 296.9751885 283.63444397 290.3527832 283.62304688 C283.53508581 283.61157249 276.7177821 283.62563243 269.90013659 283.65244335 C264.03409365 283.67464296 258.1681739 283.68122801 252.30209196 283.67536694 C248.80414932 283.6720056 245.30645886 283.67435683 241.80855179 283.69161797 C237.90468329 283.71004253 234.00129393 283.69585614 230.09741211 283.67871094 C228.94805679 283.68837891 227.79870148 283.69804687 226.61451721 283.70800781 C216.07503119 283.61122526 209.89931533 280.04447392 202.1887207 272.92700195 C192.42714793 262.45116776 190.48698494 253.85371826 190.45263672 239.7590332 C190.44594971 238.61687347 190.4392627 237.47471375 190.43237305 236.29794312 C190.41834768 233.82293757 190.40644568 231.34791929 190.39642525 228.87289429 C190.37998527 224.95574285 190.35674744 221.0386862 190.33152771 217.12158203 C190.26050277 205.98613488 190.20053106 194.85064371 190.14941406 183.71508789 C190.11804795 176.90002642 190.07635677 170.08508112 190.02921867 163.27011108 C190.01320333 160.67379751 190.00087962 158.07745845 189.99231148 155.48110962 C189.98016005 151.85228203 189.95601174 148.22371534 189.92919922 144.5949707 C189.92861008 143.52258148 189.92802094 142.45019226 189.92741394 141.3453064 C189.87726745 136.22428403 189.66597557 131.96484732 187.6262207 127.17700195 C187.34907227 126.4396582 187.07192383 125.70231445 186.78637695 124.94262695 C184.36108945 121.25161702 179.69947589 120.31821569 175.6262207 119.17700195 C167.79517877 117.98929393 160.40519486 120.16854424 153.8137207 124.42700195 C148.94899051 128.16563719 146.62423769 133.47481543 144.6262207 139.17700195 C144.32611704 141.66761652 144.32611704 141.66761652 144.36120605 144.28010559 C144.35293289 145.28511612 144.34465973 146.29012665 144.33613586 147.32559204 C144.33760872 148.96290787 144.33760872 148.96290787 144.33911133 150.63330078 C144.33227829 151.79160904 144.32544525 152.9499173 144.31840515 154.14332581 C144.3048223 156.65707777 144.29576572 159.17085734 144.29069519 161.68464088 C144.28240559 165.66530126 144.26218089 169.64580146 144.23815918 173.62638855 C144.18924864 182.08072019 144.15690981 190.53508751 144.1262207 198.98950195 C144.09309282 208.10762077 144.05703687 217.22567354 144.00208998 226.34369105 C143.97510385 230.93013179 143.96325004 235.51647614 143.95397949 240.10298157 C143.94100282 242.51283071 143.92748188 244.922677 143.91333008 247.33251953 C143.91480293 248.96072632 143.91480293 248.96072632 143.91630554 250.62182617 C143.85465283 258.1743396 143.36284498 265.16706709 139.1262207 271.67700195 C138.7034082 272.34731445 138.2805957 273.01762695 137.8449707 273.70825195 C137.4427832 274.19293945 137.0405957 274.67762695 136.6262207 275.17700195 C135.9662207 275.17700195 135.3062207 275.17700195 134.6262207 275.17700195 C134.6262207 275.83700195 134.6262207 276.49700195 134.6262207 277.17700195 C133.16817902 277.9900252 131.70977755 278.80240327 130.2512207 279.61450195 C129.43911133 280.06696289 128.62700195 280.51942383 127.7902832 280.9855957 C124.39242671 282.85625677 122.51198263 283.30616999 118.61813354 283.32417297 C117.55834793 283.33132828 116.49856232 283.33848358 115.40666199 283.34585571 C114.23887711 283.34854462 113.07109222 283.35123352 111.86791992 283.35400391 C110.64177475 283.3605751 109.41562958 283.3671463 108.15232849 283.37391663 C104.07851928 283.39369047 100.00474952 283.40532325 95.9309082 283.4152832 C94.52755844 283.41933099 93.12420888 283.42344792 91.72085953 283.42763329 C85.1246085 283.44669117 78.52836868 283.46091829 71.93209541 283.46924525 C64.3257757 283.47900621 56.7197479 283.50529298 49.11353099 283.54574615 C43.23060931 283.57595619 37.34777102 283.59071893 31.4647733 283.59402627 C27.95332146 283.59637215 24.44218123 283.60527092 20.93081284 283.63048744 C17.00741106 283.65820612 13.08438941 283.65392205 9.16088867 283.64697266 C7.42742943 283.66618774 7.42742943 283.66618774 5.65895081 283.68579102 C-2.42121722 283.63368089 -7.65081387 282.33502573 -13.94799805 276.9934082 C-14.99407227 275.87772461 -14.99407227 275.87772461 -16.0612793 274.73950195 C-18.38604137 272.27892904 -20.62496894 269.95930427 -23.1862793 267.73950195 C-30.14760891 259.58480155 -29.95699859 249.78676752 -29.86987305 239.60668945 C-29.87002839 238.11556935 -29.87152318 236.62444885 -29.87428284 235.1333313 C-29.87565921 232.02514554 -29.86323509 228.91742552 -29.84033203 225.80932617 C-29.81189949 221.84405624 -29.81470823 217.87955578 -29.82742214 213.91422844 C-29.83440585 210.84109019 -29.82656034 207.76812701 -29.81416512 204.69501114 C-29.8096802 203.23351846 -29.80928765 201.77200679 -29.81323051 200.31051254 C-29.8274148 190.43249718 -29.62888217 182.14413456 -22.6862793 174.42700195 C-22.06366211 173.7102832 -21.44104492 172.99356445 -20.79956055 172.25512695 C-12.9765307 165.55327208 -5.70932794 165.63039336 4.1887207 165.78637695 C5.5897541 165.7938501 6.99079805 165.79953795 8.3918457 165.80352783 C12.05484578 165.81870009 15.71719751 165.85790679 19.37994385 165.90234375 C23.12730993 165.94347996 26.87478531 165.96179792 30.62231445 165.98168945 C37.95751988 166.02228273 45.29095188 166.1005929 52.6262207 166.17700195 C52.6262207 150.33700195 52.6262207 134.49700195 52.6262207 118.17700195 C48.91629883 118.2234082 45.20637695 118.26981445 41.3840332 118.31762695 C37.76653408 118.34887662 34.14905035 118.37313371 30.53149414 118.39672852 C28.02914634 118.41676798 25.52684492 118.44400717 23.0246582 118.47875977 C19.41516633 118.52761435 15.80629692 118.55004841 12.1965332 118.56762695 C11.08883575 118.58827209 9.98113831 118.60891724 8.83987427 118.63018799 C0.75237101 118.63249236 -5.20285913 116.76246204 -12.3737793 113.17700195 C-12.3737793 112.51700195 -12.3737793 111.85700195 -12.3737793 111.17700195 C-12.9306543 110.95012695 -13.4875293 110.72325195 -14.0612793 110.48950195 C-18.05816816 108.22099747 -20.91344578 105.55800249 -22.3737793 101.17700195 C-23.0337793 101.17700195 -23.6937793 101.17700195 -24.3737793 101.17700195 C-28.11877341 94.89507634 -29.49241536 90.93951211 -29.53491211 83.51586914 C-29.53987701 82.85513901 -29.54484192 82.19440887 -29.54995728 81.51365662 C-29.56452822 79.33371934 -29.57137318 77.15385488 -29.5769043 74.97387695 C-29.58266089 73.45176188 -29.58841856 71.92964681 -29.59417725 70.40753174 C-29.60467351 67.21659 -29.61052484 64.02567336 -29.61401367 60.8347168 C-29.61948877 56.7617485 -29.64350129 52.68911611 -29.67198563 48.6162529 C-29.69068529 45.47110044 -29.69582153 42.32602762 -29.69734955 39.18082428 C-29.70036122 37.6802309 -29.70833914 36.17963842 -29.72153473 34.67910004 C-29.79703954 25.43133213 -29.65272755 18.09542434 -24.3737793 10.17700195 C-23.7137793 10.17700195 -23.0537793 10.17700195 -22.3737793 10.17700195 C-22.3737793 9.51700195 -22.3737793 8.85700195 -22.3737793 8.17700195 C-21.7137793 8.17700195 -21.0537793 8.17700195 -20.3737793 8.17700195 C-20.3737793 7.51700195 -20.3737793 6.85700195 -20.3737793 6.17700195 C-18.770874 5.36201633 -17.16640652 4.55010268 -15.5612793 3.73950195 C-14.66795898 3.28704102 -13.77463867 2.83458008 -12.85424805 2.3684082 C-8.47102788 0.26308198 -4.76848114 0.01816137 0 0 Z " fill="#6F4638" transform="translate(29.373779296875,-0.177001953125)"/>
<path d="M0 0 C4.43713175 1.47904392 6.93686959 4.97198349 9 9 C11.37557223 16.35687784 11.32280437 23.49144332 11.3359375 31.17578125 C11.34237963 32.55047234 11.34910899 33.92516211 11.35610962 35.29985046 C11.36803164 38.17185642 11.37179572 41.04374256 11.37060547 43.91577148 C11.37040258 47.56700688 11.39769564 51.21746137 11.43214989 54.86851215 C11.45456302 57.70584022 11.45843865 60.54298461 11.45738602 63.38039207 C11.46084328 65.37151759 11.48241132 67.36258578 11.50448608 69.35359192 C11.45886197 78.50809647 10.1448178 86.2827733 5 94 C4.34 94 3.68 94 3 94 C3 94.66 3 95.32 3 96 C2.34 96 1.68 96 1 96 C1 96.66 1 97.32 1 98 C-7.18068185 103.30240513 -14.44136286 103.67453109 -23.9765625 103.48828125 C-25.39715316 103.47893443 -26.81776014 103.47182717 -28.2383728 103.46684265 C-31.94425401 103.44791898 -35.64912657 103.39895017 -39.35461426 103.34332275 C-43.81829489 103.28272383 -48.28231628 103.26014395 -52.74629211 103.23105621 C-59.49822561 103.18287084 -66.24795418 103.08696109 -73 103 C-73 119.17 -73 135.34 -73 152 C-74.65 152 -76.3 152 -78 152 C-80 150 -80 150 -80.24050903 147.70944214 C-80.23606781 146.75457916 -80.23162659 145.79971619 -80.22705078 144.81591797 C-80.22689972 143.73494843 -80.22674866 142.65397888 -80.22659302 141.54025269 C-80.21627045 140.36939117 -80.20594788 139.19852966 -80.1953125 137.9921875 C-80.1924826 136.79643097 -80.18965271 135.60067444 -80.18673706 134.36868286 C-80.17551305 130.53735481 -80.15040431 126.70625778 -80.125 122.875 C-80.11497308 120.28255545 -80.10584673 117.69010725 -80.09765625 115.09765625 C-80.07556646 108.73169158 -80.04206706 102.36586229 -80 96 C-79.22040924 96.00079559 -78.44081848 96.00159119 -77.63760376 96.00241089 C-70.25282558 96.00462832 -62.86895928 95.97797083 -55.48443031 95.9197216 C-51.68883662 95.89077768 -47.89385529 95.87259324 -44.09814453 95.87988281 C-40.42775177 95.88652107 -36.75856423 95.8637409 -33.08842087 95.82144547 C-31.69560417 95.81039322 -30.30266404 95.80954229 -28.90983963 95.81957626 C-19.80892184 95.87667999 -13.13639583 94.94610847 -6 89 C0.08737529 82.5354482 2.24645588 76.10741846 2.25878906 67.16601562 C2.26824554 65.18861389 2.26824554 65.18861389 2.27789307 63.17126465 C2.27431284 61.74959173 2.27021077 60.32792003 2.265625 58.90625 C2.26697431 57.43086686 2.26891705 55.95548416 2.27142334 54.48010254 C2.27436211 51.39701072 2.27011731 48.31403526 2.26074219 45.23095703 C2.24934834 41.29367051 2.25591452 37.35665673 2.26788712 33.41938019 C2.27513953 30.375488 2.27280231 27.33165969 2.26763153 24.2877655 C2.26630437 22.83660347 2.26790976 21.38543549 2.27259064 19.9342804 C2.27771146 17.90084963 2.26851341 15.86739833 2.25878906 13.83398438 C2.25719788 12.68039429 2.25560669 11.5268042 2.25396729 10.33825684 C1.96989615 6.60430192 1.138835 3.55703127 0 0 Z " fill="#3D2E2A" transform="translate(107,97)"/>
<path d="M0 0 C1.22496293 1.8374444 2.40435984 3.70762973 3.5 5.625 C4.78026262 8.1057227 4.78026262 8.1057227 7 9 C11.98109259 9.37593152 15.05673864 9.1765161 19 6 C20.80796103 3.43389334 20.80796103 3.43389334 22 1 C26.58892426 2.55866687 30.16899743 5.00901299 34.0625 7.8125 C34.67416016 8.23853516 35.28582031 8.66457031 35.91601562 9.10351562 C44.50724823 15.24276401 44.50724823 15.24276401 45.53125 20.97265625 C45.5209375 21.99230469 45.510625 23.01195313 45.5 24.0625 C45.51546875 25.59583984 45.51546875 25.59583984 45.53125 27.16015625 C44.86775923 30.70690472 43.89770095 31.88896014 41 34 C36.28828702 34.9874382 31.96576701 34.36216263 27.5 32.6875 C25 31 25 31 23 28 C19.26948162 27.16085356 15.43871024 27.16199012 11.625 27 C10.57054687 26.92394531 9.51609375 26.84789063 8.4296875 26.76953125 C5.53357375 26.63354621 2.86911644 26.57783493 0 27 C-2.62293257 29.21071512 -2.62293257 29.21071512 -4 32 C-8.67954322 35.11969548 -13.52778884 34.69440473 -19 34 C-21.75 32.1875 -21.75 32.1875 -23 29 C-23.75268252 24.55917315 -24.42776062 20.27612592 -21.93212891 16.29760742 C-18.06197167 11.4395662 -13.37718242 8.28057448 -8.125 5.0625 C-6.949375 4.32290039 -6.949375 4.32290039 -5.75 3.56835938 C-3.83950575 2.36847579 -1.92314606 1.17945695 0 0 Z " fill="#FDE38F" transform="translate(182,73)"/>
<path d="M0 0 C3.97697791 1.27831433 5.25108607 3.68124732 7.16796875 7.1484375 C9.03493489 11.30309455 9.13519163 15.1295367 9.16113281 19.66113281 C9.16609772 20.32186295 9.17106262 20.98259308 9.17617798 21.66334534 C9.19074893 23.84328262 9.19759388 26.02314707 9.203125 28.203125 C9.2088816 29.72524008 9.21463926 31.24735515 9.22039795 32.76947021 C9.23089421 35.96041195 9.23674554 39.1513286 9.24023438 42.34228516 C9.24570948 46.41525345 9.26972199 50.48788584 9.29820633 54.56074905 C9.316906 57.70590152 9.32204224 60.85097434 9.32357025 63.99617767 C9.32658192 65.49677105 9.33455984 66.99736353 9.34775543 68.49790192 C9.4336538 79.01866421 9.07996233 87.36619125 1.6875 95.4609375 C-3.3475587 100.05309752 -8.4704221 102.12650498 -15.19384766 102.11352539 C-16.49504547 102.11344986 -17.79624329 102.11337433 -19.13687134 102.11329651 C-20.56260211 102.10818947 -21.9883325 102.10297347 -23.4140625 102.09765625 C-24.86851961 102.09579147 -26.32297734 102.09436785 -27.7774353 102.09336853 C-31.60792776 102.08954805 -35.43838237 102.07972176 -39.26885986 102.06866455 C-43.86353778 102.05664314 -48.45822834 102.05204595 -53.05291748 102.04621124 C-60.03530465 102.03650977 -67.01760877 102.01734995 -74 102 C-74 118.17 -74 134.34 -74 151 C-75.98 151 -77.96 151 -80 151 C-80 132.85 -80 114.7 -80 96 C-75.84535156 95.96261719 -71.69070313 95.92523438 -67.41015625 95.88671875 C-64.07638731 95.84855426 -60.7426821 95.80748199 -57.40897369 95.7644577 C-53.90149662 95.719982 -50.39413388 95.68051006 -46.88647461 95.65356445 C-42.85241123 95.62233683 -38.81895464 95.56755599 -34.78515625 95.51171875 C-33.54105484 95.50532883 -32.29695343 95.4989389 -31.01515198 95.49235535 C-21.56490192 95.33390326 -14.25882047 94.37896344 -7 88 C-6.34 88 -5.68 88 -5 88 C-4.5978125 87.195625 -4.5978125 87.195625 -4.1875 86.375 C-3.29574572 84.59149144 -2.37391916 82.82296802 -1.4375 81.0625 C0.85502485 76.17842533 1.12565571 71.84343968 1.12939453 66.48486328 C1.13412277 64.53726608 1.13412277 64.53726608 1.13894653 62.55032349 C1.13715615 61.14031948 1.13510505 59.73031578 1.1328125 58.3203125 C1.13348677 56.86449162 1.13445783 55.40867084 1.13571167 53.95285034 C1.13718375 50.90491664 1.13505044 47.85701231 1.13037109 44.80908203 C1.12468426 40.9166485 1.12794928 37.02428408 1.13394356 33.1318531 C1.13757106 30.12571703 1.13640037 27.11959712 1.13381577 24.11346054 C1.13315202 22.67904527 1.13395547 21.24462851 1.13629532 19.810215 C1.13885672 17.79811891 1.13425574 15.78601763 1.12939453 13.77392578 C1.12859894 12.63206818 1.12780334 11.49021057 1.12698364 10.31375122 C0.99303955 6.81836078 0.55194089 3.45207027 0 0 Z " fill="#1D1714" transform="translate(384,15)"/>
<path d="M0 0 C1.7734375 0.09375 1.7734375 0.09375 4 1 C5.41760708 3.17725308 6.52800886 5.17010731 7.625 7.5 C8.07359375 8.38171875 8.07359375 8.38171875 8.53125 9.28125 C12.14841161 16.7076349 13.30604953 24.25001548 13.24050903 32.44728088 C13.24221788 33.24717987 13.24392673 34.04707885 13.24568737 34.87121719 C13.24895496 37.52434634 13.23802408 40.17721681 13.22705078 42.83032227 C13.22648608 44.74295547 13.22680439 46.6555891 13.22793579 48.56822205 C13.22850799 53.74111615 13.21677523 58.9139169 13.20278788 64.08678937 C13.19025831 69.49998831 13.18910826 74.91318955 13.18673706 80.32640076 C13.18052883 90.56841934 13.1641269 100.81039507 13.14403808 111.05239481 C13.12165863 122.71622082 13.1106805 134.38004892 13.10064721 146.04389107 C13.0797601 170.02928445 13.0445969 194.01463982 13 218 C10.69 218 8.38 218 6 218 C5.99853344 216.97608312 5.99706688 215.95216623 5.99555588 214.89722157 C5.95891243 189.94877318 5.89939932 165.00045854 5.81609726 140.05212116 C5.77633843 127.98713784 5.74392987 115.92221945 5.72900391 103.85717773 C5.71597108 93.33763542 5.68896465 82.81823616 5.64538693 72.29877442 C5.62280898 66.73209791 5.60708713 61.16559759 5.60811615 55.59887123 C5.60886492 50.35144759 5.59082703 45.10441293 5.55883217 39.85709 C5.55036457 37.93878772 5.54856172 36.02044166 5.55419731 34.10212898 C5.58189504 23.21813742 4.86604216 14.27394382 1 4 C0.64497881 2.67227682 0.30217927 1.34073733 0 0 Z " fill="#281E1B" transform="translate(242,30)"/>
<path d="M0 0 C1.75 0.0625 1.75 0.0625 4 1 C7.80649991 6.18106932 8.70859683 9.62262854 8 16 C6.27307745 20.72631434 4.20548528 23.26841139 0 26 C-2.66030101 26.367028 -4.89417214 26.50912002 -7.54418945 26.45410156 C-8.28619095 26.45468567 -9.02819244 26.45526978 -9.79267883 26.45587158 C-12.23336364 26.45309564 -14.67281111 26.42202886 -17.11328125 26.390625 C-18.81006707 26.38316082 -20.50686153 26.37746872 -22.20365906 26.37347412 C-26.66069511 26.35823162 -31.11720636 26.31896207 -35.57403564 26.2746582 C-40.92625331 26.22646474 -46.27864686 26.20816486 -51.63101959 26.18484497 C-59.7543776 26.14610984 -67.87658504 26.06944739 -76 26 C-76 41.84 -76 57.68 -76 74 C-77.98 74 -79.96 74 -82 74 C-82 55.85 -82 37.7 -82 19 C-74.09160156 18.96132813 -74.09160156 18.96132813 -66.0234375 18.921875 C-62.67833713 18.89670093 -59.33332668 18.87036388 -55.98828125 18.83984375 C-50.6818002 18.79153809 -45.37552733 18.74748257 -40.06884766 18.72900391 C-35.78921288 18.71383169 -31.51012363 18.67937656 -27.23073196 18.63169098 C-25.60016249 18.61688292 -23.96951513 18.60895931 -22.33887863 18.60811615 C-20.05003833 18.60574288 -17.76270127 18.57863755 -15.47412109 18.54589844 C-13.52220352 18.53257477 -13.52220352 18.53257477 -11.53085327 18.51898193 C-7.39338967 17.91083747 -5.21904522 16.62773843 -2 14 C0.32662594 9.34674813 0.17534398 5.08497531 0 0 Z " fill="#11100F" transform="translate(110,9)"/>
<path d="M0 0 C2 3 2 3 3.1875 5.5625 C5.6558737 8.88203704 8.04521616 9.17919581 12 10 C11.6596875 10.43828125 11.319375 10.8765625 10.96875 11.328125 C7.03750064 16.47220661 3.49171011 21.7963186 0.02734375 27.265625 C-2.8390937 31.13172561 -5.14431826 33.64642069 -9.97265625 34.56640625 C-18.15632234 34.55606028 -18.15632234 34.55606028 -21.75 32.1875 C-23.59380705 27.48579203 -24.2309212 22.93692052 -23 18 C-19.31760971 12.12955933 -13.92546702 8.61651496 -8.125 5.0625 C-6.949375 4.32290039 -6.949375 4.32290039 -5.75 3.56835938 C-3.83950575 2.36847579 -1.92314606 1.17945695 0 0 Z " fill="#FCE38E" transform="translate(182,73)"/>
<path d="M0 0 C3.42282723 2.33374584 4.94672394 4.12973434 6.75 7.875 C7.4232992 12.16444544 7.25605633 15.67644554 5.5625 19.6875 C0.70370729 25.55156016 0.70370729 25.55156016 -3.5859375 26.26171875 C-9.2814202 26.50972025 -12.88093234 25.81781716 -17.25 21.875 C-20.41205748 18.18593294 -20.77383784 14.79609268 -20.6015625 10.08984375 C-19.88089172 5.54961786 -17.42798414 2.85665345 -14 0 C-9.03820261 -2.02982621 -4.92701381 -1.70550478 0 0 Z " fill="#010000" transform="translate(227.25,36.125)"/>
<path d="M0 0 C3.4812511 2.32083406 4.99212405 4.09421919 6.8125 7.875 C7.64505422 12.61546176 7.28458811 15.93082377 5.125 20.25 C2.21408786 23.55427865 0.14889371 25.56858771 -4.33203125 26.15625 C-9.07920962 26.34519242 -12.45615701 26.073294 -16.1875 22.875 C-19.84758184 18.7203125 -20.8427494 15.44893817 -20.5703125 10.0546875 C-19.95223136 6.53540917 -18.56283927 4.50037498 -16.1875 1.875 C-10.79549763 -1.71966825 -6.09470909 -2.1510738 0 0 Z " fill="#010000" transform="translate(172.1875,36.125)"/>
<path d="M0 0 C33.165 0.495 33.165 0.495 67 1 C67 3.31 67 5.62 67 8 C59.70640378 8.09303702 52.41293733 8.16393443 45.11886597 8.20724869 C41.73121042 8.22804671 38.34396344 8.25621887 34.95654297 8.30175781 C31.05425354 8.35044693 27.15253848 8.37300929 23.25 8.390625 C22.04448486 8.41127014 20.83896973 8.43191528 19.59692383 8.45318604 C12.61176662 8.45503631 7.85510436 7.95254231 2 4 C1.34 2.68 0.68 1.36 0 0 Z " fill="#3D2B27" transform="translate(292,192)"/>
<path d="M0 0 C24.42 0 48.84 0 74 0 C74 1.98 74 3.96 74 6 C65.08994114 6.09274575 56.18004885 6.16378787 47.26961231 6.20724869 C43.13196048 6.22810948 38.99463928 6.25639897 34.85717773 6.30175781 C30.86306707 6.34527028 26.86927411 6.36914846 22.87494469 6.37950897 C21.35230191 6.38689073 19.82967621 6.40130586 18.30716896 6.42292023 C16.17160312 6.45202778 14.03734413 6.4559532 11.90161133 6.45410156 C10.6869368 6.46298401 9.47226227 6.47186646 8.22077942 6.48101807 C4.38410489 5.90801709 2.70121389 4.7377359 0 2 C0 1.34 0 0.68 0 0 Z " fill="#060605" transform="translate(284,28)"/>
<path d="M0 0 C0.86568604 0.15847412 1.73137207 0.31694824 2.62329102 0.48022461 C8.71770425 1.34497694 14.88379614 1.23731501 21.02734375 1.31640625 C22.38498011 1.33700907 23.74261053 1.35800634 25.10023499 1.37937927 C28.65275226 1.43425665 32.20532408 1.48381552 35.75793457 1.53222656 C39.3914061 1.58269427 43.02479959 1.63824768 46.65820312 1.69335938 C53.77206757 1.80052017 60.88600219 1.90205639 68 2 C68 3.98 68 5.96 68 8 C60.57601792 8.09302654 53.15216326 8.16392923 45.72771454 8.20724869 C42.27952868 8.22804893 38.83174406 8.25622536 35.38378906 8.30175781 C31.41215965 8.35387244 27.44068793 8.37300789 23.46875 8.390625 C21.62766663 8.42159271 21.62766663 8.42159271 19.74938965 8.45318604 C12.66936347 8.45502909 8.03812425 7.77709504 2 4 C2 3.34 2 2.68 2 2 C1.34 2 0.68 2 0 2 C0 1.34 0 0.68 0 0 Z " fill="#221A16" transform="translate(15,109)"/>
<path d="M0 0 C3.16664776 2.58501858 4.5764456 4.05996956 5.4375 8.00390625 C5.65923215 11.65555763 5.09998522 13.83795498 3.1875 16.9375 C0.34478523 19.61777392 -1.50725706 19.95437565 -5.375 20.3125 C-9.60663216 19.94770412 -11.07633558 19.00965455 -14 16 C-15.20190901 12.39427296 -15.32670315 9.7897565 -15 6 C-11.067585 -0.029703 -6.97606069 -1.23885216 0 0 Z " fill="#020201" transform="translate(198,63)"/>
<path d="M0 0 C4.19493427 1.39831142 5.46956607 4.40602731 7.6875 8 C8.10322266 8.65484375 8.51894531 9.3096875 8.94726562 9.984375 C12 14.83666872 12 14.83666872 12 16 C5.4 16 -1.2 16 -8 16 C-8 11.15739338 -6.72729126 9.67048119 -4 5.75 C-3.2575 4.67234375 -2.515 3.5946875 -1.75 2.484375 C-1.1725 1.66453125 -0.595 0.8446875 0 0 Z " fill="#FE9E9D" transform="translate(192,84)"/>
<path d="M0 0 C2.86697492 1.28519565 4.97607712 2.57129254 7 5 C7 5.66 7 6.32 7 7 C6.01 7 5.02 7 4 7 C2.02 3.535 2.02 3.535 0 0 Z " fill="#403633" transform="translate(237,23)"/>
</svg>
