<svg xmlns="http://www.w3.org/2000/svg" viewBox="0 0 235 1095" width="235" height="1095">
    <g xmlns="http://www.w3.org/2000/svg" transform="matrix(0 1 -1 0 235 -0)">
        <g mask="url(&quot;#SvgjsMask1292&quot;)" fill="none">
            <rect width="1095" height="235" x="0" y="0" fill="rgba(30, 30, 30, 1)"></rect>
            <path
                d="M -451.7549229743212,65.5 C -396.95,80.5 -287.35,138.1 -177.75492297432118,140.5 C -68.15,142.9 -13.35,70.5 96.24507702567882,77.5 C 205.85,84.5 260.65,178.7 370.2450770256788,175.5 C 479.85,172.3 534.65,72.7 644.2450770256788,61.5 C 753.85,50.3 828.09,109.7 918.2450770256788,119.5 C 1008.4,129.3 1059.65,112.3 1095,110.5"
                stroke="rgba(171, 48, 48, 1)" stroke-width="2"></path>
            <path
                d="M -512.734642989451,129.5 C -457.93,126.3 -348.33,113.5 -238.73464298945098,113.5 C -129.13,113.5 -74.33,131.9 35.265357010549025,129.5 C 144.87,127.1 199.67,96.7 309.265357010549,101.5 C 418.87,106.3 473.67,152.5 583.265357010549,153.5 C 692.87,154.5 754.92,108.7 857.265357010549,106.5 C 959.61,104.3 1047.45,135.3 1095,142.5"
                stroke="rgba(171, 48, 48, 1)" stroke-width="2"></path>
        </g>
        <defs>
            <mask id="SvgjsMask1292">
                <rect width="1095" height="235" fill="#ffffff"></rect>
            </mask>
        </defs>
    </g>
</svg>